<mxfile host="app.diagrams.net" agent="Mozilla/5.0 (Windows NT 10.0; Win64; x64) AppleWebKit/537.36 (KHTML, like Gecko) Chrome/120.0.0.0 Safari/537.36" version="25.0.3">
  <diagram name="第 1 页" id="DoacEcyN-tPw5M91nlY1">
    <mxGraphModel dx="1434" dy="756" grid="1" gridSize="10" guides="1" tooltips="1" connect="1" arrows="1" fold="1" page="1" pageScale="1" pageWidth="827" pageHeight="1169" math="0" shadow="0">
      <root>
        <mxCell id="0" />
        <mxCell id="1" parent="0" />
        <mxCell id="JY0nKwkiRLZ-xdJiSqcZ-6" style="edgeStyle=orthogonalEdgeStyle;rounded=0;orthogonalLoop=1;jettySize=auto;html=1;entryX=0;entryY=0.5;entryDx=0;entryDy=0;labelBackgroundColor=none;fontColor=default;fontSize=14;fontStyle=1" edge="1" parent="1" source="JY0nKwkiRLZ-xdJiSqcZ-3" target="JY0nKwkiRLZ-xdJiSqcZ-5">
          <mxGeometry relative="1" as="geometry" />
        </mxCell>
        <mxCell id="JY0nKwkiRLZ-xdJiSqcZ-3" value="开始" style="rounded=1;whiteSpace=wrap;html=1;labelBackgroundColor=none;fontSize=14;fontStyle=1" vertex="1" parent="1">
          <mxGeometry x="40" y="220" width="150" height="60" as="geometry" />
        </mxCell>
        <mxCell id="JY0nKwkiRLZ-xdJiSqcZ-8" style="edgeStyle=orthogonalEdgeStyle;rounded=0;orthogonalLoop=1;jettySize=auto;html=1;exitX=1;exitY=0.5;exitDx=0;exitDy=0;labelBackgroundColor=none;fontColor=default;fontSize=14;fontStyle=1" edge="1" parent="1" source="JY0nKwkiRLZ-xdJiSqcZ-5" target="JY0nKwkiRLZ-xdJiSqcZ-7">
          <mxGeometry relative="1" as="geometry" />
        </mxCell>
        <mxCell id="JY0nKwkiRLZ-xdJiSqcZ-5" value="输入组件" style="rounded=1;whiteSpace=wrap;html=1;labelBackgroundColor=none;fontSize=14;fontStyle=1" vertex="1" parent="1">
          <mxGeometry x="300" y="220" width="120" height="60" as="geometry" />
        </mxCell>
        <mxCell id="JY0nKwkiRLZ-xdJiSqcZ-13" style="edgeStyle=orthogonalEdgeStyle;rounded=0;orthogonalLoop=1;jettySize=auto;html=1;exitX=0.25;exitY=0;exitDx=0;exitDy=0;" edge="1" parent="1" source="JY0nKwkiRLZ-xdJiSqcZ-7" target="JY0nKwkiRLZ-xdJiSqcZ-12">
          <mxGeometry relative="1" as="geometry" />
        </mxCell>
        <mxCell id="JY0nKwkiRLZ-xdJiSqcZ-22" value="子节点" style="edgeLabel;html=1;align=center;verticalAlign=middle;resizable=0;points=[];" vertex="1" connectable="0" parent="JY0nKwkiRLZ-xdJiSqcZ-13">
          <mxGeometry x="0.0933" y="-3" relative="1" as="geometry">
            <mxPoint as="offset" />
          </mxGeometry>
        </mxCell>
        <mxCell id="JY0nKwkiRLZ-xdJiSqcZ-17" style="edgeStyle=orthogonalEdgeStyle;rounded=0;orthogonalLoop=1;jettySize=auto;html=1;exitX=1;exitY=0.5;exitDx=0;exitDy=0;fontSize=14;fontStyle=1" edge="1" parent="1" source="JY0nKwkiRLZ-xdJiSqcZ-7" target="JY0nKwkiRLZ-xdJiSqcZ-16">
          <mxGeometry relative="1" as="geometry" />
        </mxCell>
        <mxCell id="JY0nKwkiRLZ-xdJiSqcZ-7" value="&lt;span style=&quot;color: rgb(50, 50, 50); font-family: &amp;quot;Microsoft YaHei&amp;quot;, 微软雅黑, Arial; background-color: rgba(255, 255, 255, 0.01);&quot;&gt;广播合并组件&lt;/span&gt;" style="rounded=1;whiteSpace=wrap;html=1;labelBackgroundColor=none;fontSize=14;fontStyle=1" vertex="1" parent="1">
          <mxGeometry x="520" y="220" width="120" height="60" as="geometry" />
        </mxCell>
        <mxCell id="JY0nKwkiRLZ-xdJiSqcZ-12" value="&lt;span style=&quot;color: rgb(50, 50, 50); font-family: &amp;quot;Microsoft YaHei&amp;quot;, 微软雅黑, Arial; font-size: 14px; font-weight: 700; background-color: rgba(255, 255, 255, 0.01);&quot;&gt;输出组件&lt;/span&gt;&lt;div style=&quot;resize: none; outline: none; font-size: 14px; color: rgb(50, 50, 50); font-family: &amp;quot;Microsoft YaHei&amp;quot;, 微软雅黑, Arial; font-weight: 700;&quot;&gt;【获取患者信息】&lt;/div&gt;" style="rounded=1;whiteSpace=wrap;html=1;labelBackgroundColor=none;" vertex="1" parent="1">
          <mxGeometry x="420" y="80" width="120" height="60" as="geometry" />
        </mxCell>
        <mxCell id="JY0nKwkiRLZ-xdJiSqcZ-14" value="&lt;span style=&quot;color: rgb(50, 50, 50); font-family: &amp;quot;Microsoft YaHei&amp;quot;, 微软雅黑, Arial; font-size: 14px; font-weight: 700; background-color: rgba(255, 255, 255, 0.01);&quot;&gt;输出组件&lt;/span&gt;&lt;div style=&quot;resize: none; outline: none; font-size: 14px; color: rgb(50, 50, 50); font-family: &amp;quot;Microsoft YaHei&amp;quot;, 微软雅黑, Arial; font-weight: 700;&quot;&gt;【获取患者费用信息】&lt;/div&gt;" style="rounded=1;whiteSpace=wrap;html=1;labelBackgroundColor=none;" vertex="1" parent="1">
          <mxGeometry x="630" y="80" width="120" height="60" as="geometry" />
        </mxCell>
        <mxCell id="JY0nKwkiRLZ-xdJiSqcZ-15" style="edgeStyle=orthogonalEdgeStyle;rounded=0;orthogonalLoop=1;jettySize=auto;html=1;entryX=0.408;entryY=1;entryDx=0;entryDy=0;entryPerimeter=0;" edge="1" parent="1" source="JY0nKwkiRLZ-xdJiSqcZ-7" target="JY0nKwkiRLZ-xdJiSqcZ-14">
          <mxGeometry relative="1" as="geometry" />
        </mxCell>
        <mxCell id="JY0nKwkiRLZ-xdJiSqcZ-18" value="Text" style="edgeLabel;html=1;align=center;verticalAlign=middle;resizable=0;points=[];" vertex="1" connectable="0" parent="JY0nKwkiRLZ-xdJiSqcZ-15">
          <mxGeometry x="-0.0503" y="-2" relative="1" as="geometry">
            <mxPoint as="offset" />
          </mxGeometry>
        </mxCell>
        <mxCell id="JY0nKwkiRLZ-xdJiSqcZ-20" value="子节点" style="edgeLabel;html=1;align=center;verticalAlign=middle;resizable=0;points=[];" vertex="1" connectable="0" parent="JY0nKwkiRLZ-xdJiSqcZ-15">
          <mxGeometry x="-0.0726" y="3" relative="1" as="geometry">
            <mxPoint as="offset" />
          </mxGeometry>
        </mxCell>
        <mxCell id="JY0nKwkiRLZ-xdJiSqcZ-16" value="&lt;span style=&quot;color: rgb(50, 50, 50); font-family: &amp;quot;Microsoft YaHei&amp;quot;, 微软雅黑, Arial; background-color: rgba(255, 255, 255, 0.01);&quot;&gt;&amp;nbsp;输出组件&lt;/span&gt;&lt;div style=&quot;resize: none; outline: none; color: rgb(50, 50, 50); font-family: &amp;quot;Microsoft YaHei&amp;quot;, 微软雅黑, Arial;&quot;&gt;【合并后输出】&lt;/div&gt;" style="rounded=1;whiteSpace=wrap;html=1;labelBackgroundColor=none;fontSize=14;fontStyle=1" vertex="1" parent="1">
          <mxGeometry x="740" y="220" width="120" height="60" as="geometry" />
        </mxCell>
      </root>
    </mxGraphModel>
  </diagram>
</mxfile>
